<?xml version="1.0" standalone="no"?>
<!DOCTYPE svg PUBLIC "-//W3C//DTD SVG 20010904//EN"
 "http://www.w3.org/TR/2001/REC-SVG-20010904/DTD/svg10.dtd">
<svg version="1.0" xmlns="http://www.w3.org/2000/svg"
 width="256.000000pt" height="256.000000pt" viewBox="0 0 256.000000 256.000000"
 preserveAspectRatio="xMidYMid meet">
<metadata>
Created by potrace 1.14, written by Peter Selinger 2001-2017
</metadata>
<g transform="translate(0.000000,256.000000) scale(0.100000,-0.100000)"
fill="#000000" stroke="none">
<path d="M908 2405 c-2 -2 -29 -5 -61 -9 -417 -44 -775 -368 -837 -758 -13
-85 -7 -243 14 -332 17 -70 79 -214 115 -264 23 -33 30 1 -68 -309 -34 -105
-61 -200 -61 -210 0 -24 35 -63 58 -64 38 -3 33 -5 431 197 l64 32 71 -25 c39
-14 104 -31 145 -39 65 -12 79 -20 126 -62 63 -58 137 -108 222 -150 100 -51
165 -71 323 -99 65 -11 254 -5 333 12 43 9 110 27 149 40 l70 24 36 -21 c66
-37 356 -183 397 -199 48 -20 87 -10 104 27 15 35 15 41 -18 141 -16 48 -50
152 -75 231 l-46 143 20 30 c35 48 97 190 116 264 20 83 27 266 13 345 -72
380 -394 677 -809 745 -23 3 -51 20 -80 48 -113 109 -321 214 -475 242 -86 15
-268 28 -277 20z m192 -159 c90 -12 171 -37 267 -82 70 -34 112 -63 92 -66 -8
0 -18 -2 -24 -3 -225 -37 -402 -124 -558 -274 -77 -74 -160 -194 -201 -291
-86 -203 -84 -460 5 -659 31 -69 37 -93 17 -73 -7 7 -18 12 -25 12 -8 0 -31 8
-52 18 -21 11 -50 18 -63 16 -14 -1 -85 -33 -159 -70 -74 -38 -146 -74 -160
-80 l-27 -12 34 107 c18 58 42 131 52 161 25 73 21 96 -28 168 -163 240 -156
564 18 802 131 179 351 303 582 327 30 3 56 6 58 8 3 3 129 -4 172 -9z m612
-300 c189 -26 393 -133 510 -268 136 -158 191 -308 183 -498 -6 -148 -38 -245
-121 -372 -30 -45 -43 -74 -40 -90 2 -13 27 -94 54 -180 l49 -157 -160 81
c-88 44 -168 81 -178 83 -10 2 -46 -7 -79 -21 -445 -181 -957 16 -1122 430
-20 52 -22 58 -38 136 -13 64 -5 224 14 295 41 148 141 293 271 392 184 141
420 201 657 169z"/>
<path d="M1243 1268 c-46 -22 -48 -91 -4 -125 53 -41 133 23 109 86 -17 46
-58 62 -105 39z"/>
<path d="M1543 1272 c-25 -16 -42 -64 -32 -90 36 -95 170 -45 136 51 -13 38
-71 60 -104 39z"/>
<path d="M1838 1266 c-42 -32 -41 -90 1 -123 43 -33 109 2 116 62 1 6 -4 22
-11 36 -19 38 -73 50 -106 25z"/>
</g>
</svg>
